<svg width="771" height="624" viewBox="0 0 771 624" fill="none" xmlns="http://www.w3.org/2000/svg">
<path d="M651.575 505.76C651.641 512.049 650.019 520.271 648.33 527.049C636.53 574.716 584.13 628.205 510.375 623.338C443.53 618.938 389.086 586.849 389.086 541.849C389.086 496.849 443.397 460.36 510.375 460.36C577.353 460.36 651.153 460.76 651.575 505.76Z" fill="#014763"/>
<path d="M510.375 467.916C474.397 467.916 392.286 477.871 373.441 477.871C340.152 477.871 313.152 498.76 313.152 524.538C313.152 536.938 319.508 548.138 329.686 556.493C329.686 556.493 352.041 578.916 392.308 568.16C409.93 563.449 438.597 528.471 489.063 522.915C514.197 520.138 561.286 539.582 644.041 540.049C647.597 532.404 648.33 527.093 648.33 527.093C648.33 482.049 577.352 467.916 510.375 467.916Z" fill="#014763"/>
<path d="M648.329 527.049C648.329 527.049 696.862 517.205 727.04 477.516C762.218 431.227 757.596 381.693 757.596 381.693C793.24 315.027 746.485 252.516 746.485 252.516C741.84 182.138 698.329 152.982 698.329 152.982C670.085 85.849 607.596 67.8046 607.596 67.8046C558.529 10.4046 471.485 12.249 471.485 12.249C471.485 12.249 389.929 -17.6398 277.974 15.9602C259.462 21.5157 197.418 34.4713 152.04 62.249C9.018 149.805 -1.80423 286.338 0.195772 308.538C11.2847 432.605 98.3291 454.827 153.885 467.782C166.84 502.96 214.529 567.782 300.174 543.716C405.729 525.205 450.174 493.716 476.107 493.716C502.04 493.716 574.262 521.493 648.329 527.049Z" fill="#02BCCB"/>
<path d="M381.375 327.56C433.108 299.671 461.152 302.271 485.908 304.516C493.775 305.227 501.219 305.782 508.752 305.738C552.841 304.738 588.552 286.16 604.352 268.182C606.164 265.948 607.041 263.1 606.799 260.234C606.558 257.368 605.216 254.706 603.056 252.807C600.895 250.908 598.084 249.919 595.21 250.047C592.337 250.175 589.624 251.41 587.641 253.493C575.464 267.36 545.441 282.671 508.241 283.516C501.575 283.716 494.886 283.049 487.952 282.404C461.397 279.938 428.419 276.916 370.819 308.004C356.041 315.982 335.775 318.938 313.819 321.16C264.997 250.693 294.375 189.316 302.775 174.693C303.597 174.738 304.397 175.004 305.241 175.004C314.13 175.004 323.064 172.827 331.152 168.249C333.617 166.749 335.401 164.349 336.127 161.557C336.854 158.765 336.466 155.8 335.046 153.289C333.626 150.778 331.285 148.917 328.518 148.101C325.751 147.285 322.775 147.577 320.219 148.916C313.228 152.764 305.042 153.833 297.298 151.909C289.553 149.985 282.819 145.21 278.441 138.538C276.789 136.208 274.302 134.603 271.498 134.058C268.694 133.513 265.788 134.069 263.382 135.611C260.977 137.152 259.258 139.56 258.582 142.336C257.906 145.112 258.325 148.041 259.752 150.516C265.019 158.76 272.441 164.96 280.819 169.116C269.241 192.627 247.264 254.449 289.086 323.582C259.664 326.471 230.197 330.627 207.13 345.493C190.918 356.116 176.776 369.603 165.397 385.293C151.419 382.893 100.241 370.293 91.308 313.493C96.8635 309.182 101.352 303.493 104.13 296.471C104.667 295.114 104.932 293.665 104.908 292.205C104.885 290.746 104.575 289.306 103.995 287.967C103.415 286.628 102.577 285.416 101.529 284.4C100.481 283.385 99.2427 282.586 97.8858 282.049C96.5288 281.512 95.0793 281.247 93.6201 281.271C92.1609 281.294 90.7206 281.604 89.3814 282.184C88.0421 282.764 86.8302 283.602 85.8149 284.65C84.7995 285.698 84.0005 286.936 83.4635 288.293C82.6232 290.629 81.2859 292.755 79.5441 294.524C77.8023 296.292 75.6973 297.662 73.3746 298.538C71.0209 299.32 68.5263 299.586 66.0606 299.317C63.5949 299.049 61.216 298.253 59.0858 296.982C57.8105 296.273 56.408 295.822 54.9584 295.655C53.5088 295.488 52.0405 295.608 50.6373 296.008C47.8035 296.817 45.4068 298.718 43.9746 301.293C42.5425 303.869 42.1921 306.908 43.0006 309.742C43.8091 312.576 45.7102 314.972 48.2858 316.404C54.5969 319.916 61.3524 321.693 68.0635 321.693C68.8858 321.693 69.6635 321.316 70.4858 321.271C81.0635 374.893 123.441 398.449 153.419 405.582C149.494 413.935 147.007 422.89 146.064 432.071C145.805 435.006 146.722 437.924 148.614 440.182C150.506 442.441 153.217 443.856 156.152 444.116L157.152 444.16C159.93 444.16 162.606 443.119 164.655 441.244C166.703 439.368 167.975 436.793 168.219 434.027C170.619 407.071 196.33 378.916 219.175 364.138C240.597 350.338 271.952 347.427 302.308 344.604C331.752 341.916 359.575 339.338 381.375 327.56ZM667.286 294.138C666.585 295.419 666.144 296.825 665.987 298.277C665.831 299.729 665.961 301.197 666.372 302.598C666.782 303.999 667.465 305.306 668.381 306.443C669.296 307.58 670.427 308.526 671.708 309.227C672.989 309.927 674.396 310.368 675.847 310.525C677.299 310.682 678.767 310.551 680.168 310.141C682.998 309.311 685.382 307.392 686.797 304.804C687.219 304.049 727.73 228.16 651.886 177.16C649.44 175.516 646.441 174.91 643.549 175.477C640.656 176.044 638.108 177.736 636.464 180.182C634.819 182.628 634.214 185.627 634.781 188.519C635.347 191.411 637.04 193.96 639.486 195.604C698.241 235.116 668.575 291.738 667.286 294.138ZM206.686 114.716C208.449 114.721 210.189 114.305 211.758 113.501C213.328 112.697 214.682 111.528 215.708 110.093C247.93 65.2711 292.552 80.6044 294.441 81.3156C297.178 82.2189 300.159 82.0235 302.755 80.7704C305.35 79.5174 307.357 77.3048 308.352 74.5999C309.347 71.8949 309.252 68.9091 308.087 66.2729C306.922 63.6368 304.778 61.5564 302.108 60.4711C280.775 52.56 231.508 50.0711 197.664 97.1378C196.475 98.7977 195.768 100.753 195.618 102.789C195.468 104.824 195.882 106.862 196.814 108.678C197.746 110.494 199.16 112.018 200.902 113.083C202.643 114.148 204.644 114.713 206.686 114.716ZM497.175 72.76C546.619 68.7378 569.108 104.582 570.13 106.271C571.624 108.814 574.067 110.66 576.922 111.402C578.336 111.769 579.808 111.854 581.254 111.653C582.701 111.451 584.093 110.966 585.352 110.227C586.612 109.487 587.713 108.506 588.593 107.341C589.473 106.176 590.116 104.848 590.483 103.435C590.85 102.021 590.935 100.549 590.734 99.1028C590.532 97.6563 590.048 96.2637 589.308 95.0044C588.108 92.9822 559.53 45.7156 495.441 50.6045C493.987 50.7183 492.568 51.1175 491.268 51.7794C489.968 52.4412 488.81 53.3527 487.862 54.4619C485.947 56.7019 485 59.6109 485.23 62.5489C485.46 65.4869 486.848 68.2133 489.088 70.1282C491.328 72.0432 494.237 72.9899 497.175 72.76ZM700.508 397.449C695.041 397.138 689.019 401.471 688.53 407.604C688.486 408.004 684.952 445.804 646.086 458.582C643.544 459.381 641.376 461.067 639.976 463.334C638.576 465.6 638.038 468.294 638.462 470.924C638.885 473.554 640.241 475.944 642.282 477.656C644.322 479.368 646.911 480.288 649.575 480.249C650.752 480.249 651.923 480.061 653.041 479.693C705.752 462.404 710.508 411.604 710.686 409.449C710.919 406.51 709.98 403.597 708.073 401.349C706.166 399.1 703.446 397.698 700.508 397.449Z" fill="#014763"/>
<path d="M150.485 289.471C150.048 290.897 149.902 292.396 150.057 293.879C150.211 295.362 150.663 296.799 151.384 298.104C152.106 299.409 153.083 300.555 154.257 301.475C155.431 302.394 156.778 303.068 158.218 303.456C159.657 303.844 161.161 303.938 162.638 303.733C164.115 303.528 165.535 303.027 166.815 302.261C168.094 301.495 169.206 300.48 170.085 299.275C170.964 298.07 171.591 296.701 171.929 295.249C174.069 287.549 179.044 280.945 185.855 276.765C192.666 272.584 200.807 271.138 208.641 272.715C210.069 273.015 211.542 273.029 212.977 272.759C214.411 272.489 215.778 271.939 216.999 271.14C218.221 270.341 219.273 269.31 220.096 268.105C220.919 266.899 221.497 265.544 221.796 264.115C222.095 262.687 222.11 261.213 221.84 259.779C221.569 258.345 221.019 256.978 220.221 255.757C219.422 254.535 218.391 253.483 217.185 252.66C215.98 251.837 214.625 251.259 213.196 250.96C203.948 249.084 194.366 249.744 185.463 252.871C159.552 208.56 164.596 164.871 164.663 164.404C165.042 161.486 164.253 158.536 162.468 156.197C160.682 153.858 158.044 152.319 155.129 151.915C152.219 151.541 149.278 152.326 146.941 154.102C144.605 155.877 143.06 158.5 142.641 161.404C142.352 163.56 136.418 212.871 166.263 263.938C158.644 270.743 153.163 279.613 150.485 289.471ZM398.907 234.582C403.343 230.546 409.142 228.337 415.139 228.399C421.137 228.46 426.889 230.788 431.241 234.915C433.362 236.955 436.204 238.074 439.146 238.029C442.089 237.983 444.895 236.776 446.952 234.671C449.005 232.558 450.136 229.716 450.094 226.769C450.052 223.823 448.842 221.014 446.729 218.96C441.71 214.185 435.645 210.646 429.018 208.627C435.596 186.049 432.996 176.027 426.885 157.249C425.675 153.575 424.512 149.886 423.396 146.182L422.729 143.96C414.64 117.115 409.285 99.4043 424.663 74.4043C426.207 71.8936 426.69 68.8723 426.007 66.0051C425.323 63.1378 423.529 60.6596 421.018 59.1154C418.508 57.5713 415.486 57.0877 412.619 57.7712C409.752 58.4547 407.274 60.2491 405.729 62.7598C385.107 96.271 392.685 121.36 401.463 150.404L402.129 152.627C403.44 156.938 404.641 160.715 405.752 164.115C411.241 181.027 412.907 186.693 406.196 207.138C397.803 208.665 390.018 212.549 383.752 218.338C381.674 220.366 380.473 223.126 380.406 226.029C380.338 228.931 381.409 231.745 383.389 233.868C385.37 235.99 388.103 237.254 391.003 237.387C393.903 237.521 396.74 236.514 398.907 234.582ZM540.352 168.249C546.951 168.269 553.472 166.819 559.44 164.004C562.107 162.749 564.166 160.486 565.164 157.712C566.163 154.939 566.018 151.882 564.763 149.215C563.507 146.549 561.244 144.49 558.471 143.491C555.697 142.493 552.641 142.638 549.974 143.893C544.511 146.389 538.308 146.729 532.605 144.846C526.902 142.963 522.121 138.996 519.218 133.738C518.558 132.403 517.636 131.214 516.507 130.242C515.378 129.271 514.065 128.536 512.646 128.082C511.228 127.628 509.732 127.463 508.249 127.599C506.766 127.734 505.325 128.166 504.012 128.87C502.699 129.573 501.541 130.534 500.606 131.693C499.672 132.853 498.98 134.189 498.572 135.622C498.165 137.055 498.049 138.555 498.232 140.033C498.416 141.511 498.895 142.937 499.64 144.227C503.64 151.693 509.596 157.582 516.529 161.671C504.596 190.671 511.374 221.471 516.907 237.804C517.33 239.238 518.038 240.571 518.989 241.724C519.939 242.878 521.113 243.827 522.439 244.517C523.765 245.206 525.216 245.621 526.706 245.736C528.196 245.851 529.694 245.665 531.11 245.188C532.527 244.711 533.832 243.953 534.949 242.959C536.065 241.966 536.97 240.758 537.609 239.406C538.248 238.055 538.607 236.589 538.666 235.096C538.725 233.603 538.482 232.113 537.952 230.715C534.218 219.649 526.974 191.693 537.907 167.915C538.752 167.96 539.529 168.249 540.352 168.249ZM646.952 377.782C646.867 376.323 646.493 374.895 645.853 373.581C645.212 372.267 644.317 371.094 643.219 370.128C642.122 369.163 640.844 368.425 639.459 367.957C638.074 367.49 636.61 367.302 635.152 367.404C629.823 367.772 624.475 367.084 619.413 365.38C614.351 363.675 609.676 360.988 605.656 357.471C601.635 353.955 598.349 349.679 595.986 344.889C593.623 340.099 592.229 334.89 591.885 329.56C591.635 326.638 590.261 323.927 588.051 322C585.841 320.072 582.969 319.078 580.04 319.227C577.104 319.437 574.369 320.801 572.433 323.02C570.498 325.238 569.518 328.133 569.707 331.071C570.618 344.182 575.618 356.004 583.218 365.627C565.352 386.649 541.952 392.627 528.907 394.16C517.374 395.538 507.285 394.36 495.618 392.982C484.929 391.76 472.841 390.36 457.885 390.804L457.774 390.827C457.329 384.471 455.818 375.204 450.996 367.493C449.338 365.21 446.875 363.641 444.105 363.104C441.335 362.567 438.464 363.102 436.073 364.601C433.682 366.1 431.95 368.451 431.226 371.178C430.502 373.906 430.841 376.806 432.174 379.293C435.152 384.071 435.707 391.693 435.707 395.404C424.507 399.427 414.818 405.338 406.063 411.049C390.418 421.227 378.085 429.271 359.529 425.093C342.729 421.249 325.907 420.471 311.641 422.471C309.418 416.893 305.907 410.226 300.485 405.093C298.343 403.069 295.484 401.978 292.537 402.062C289.591 402.145 286.798 403.395 284.774 405.538C282.749 407.68 281.659 410.539 281.742 413.485C281.826 416.432 283.076 419.224 285.218 421.249C287.129 423.049 288.641 425.671 289.863 428.293C265.352 438.382 253.063 455.249 252.485 456.071C251.306 457.73 250.607 459.682 250.463 461.712C250.32 463.743 250.738 465.773 251.672 467.582C252.607 469.39 254.02 470.907 255.759 471.965C257.498 473.024 259.494 473.583 261.529 473.582C263.286 473.587 265.018 473.176 266.586 472.385C268.154 471.593 269.513 470.442 270.552 469.026C270.663 468.849 282.863 452.515 306.929 445.915C319.374 442.493 337.218 442.782 354.618 446.738C359.485 447.849 363.996 448.226 368.374 448.293C370.441 453.138 371.24 458.893 371.352 461.026C371.516 463.858 372.755 466.521 374.816 468.47C376.877 470.42 379.604 471.509 382.441 471.515L383.041 471.493C385.973 471.338 388.724 470.028 390.694 467.851C392.663 465.673 393.691 462.804 393.552 459.871C393.181 454.695 392.211 449.579 390.663 444.626C400.907 440.915 409.818 435.115 418.196 429.671C430.907 421.382 442.929 413.538 458.641 413.026C471.796 412.56 482.64 413.826 493.107 415.049C503.64 416.271 513.996 417.071 525.418 416.404C527.44 422.026 527.285 429.538 526.974 432.049C526.786 433.613 526.931 435.2 527.399 436.705C527.868 438.21 528.649 439.598 529.692 440.78C530.735 441.961 532.016 442.909 533.451 443.56C534.886 444.212 536.442 444.552 538.018 444.56C540.712 444.556 543.313 443.573 545.336 441.795C547.36 440.017 548.668 437.564 549.018 434.893C549.832 427.605 549.389 420.231 547.707 413.093C567.982 407.714 586.151 396.317 599.818 380.404C610.835 387.209 623.696 390.417 636.618 389.582C638.072 389.486 639.492 389.105 640.798 388.46C642.104 387.815 643.27 386.919 644.229 385.823C645.189 384.727 645.923 383.453 646.39 382.073C646.857 380.694 647.048 379.235 646.952 377.782Z" fill="#014763"/>
</svg>
