<svg width="800" height="758" viewBox="0 0 800 758" fill="none" xmlns="http://www.w3.org/2000/svg">
<path d="M487.385 245.063C439.834 245.063 437.504 229.62 437.504 200.014V38.4014C437.504 17.723 420.678 0.897461 400 0.897461C379.322 0.897461 362.496 17.723 362.496 38.4014V200.014C362.496 229.62 360.167 245.063 312.602 245.063C309.146 245.063 306.24 247.86 306.24 251.316V313.825C306.24 317.281 309.171 320.078 312.627 320.078C349.779 320.078 379.181 311.559 399.981 294.746C420.787 311.559 450.24 320.078 487.385 320.078C490.841 320.078 493.76 317.281 493.76 313.825V251.316C493.76 247.86 490.841 245.063 487.385 245.063Z" fill="#02BCCB"/>
<path d="M328.038 411.937C323.635 372.423 319.097 331.546 319.097 291.943C319.097 191.431 308.096 57.8125 213.056 57.8125C97.5041 57.8125 0.00668451 364.615 0.00668451 557.261C-0.0381154 563.341 -0.748515 706.669 38.5026 746.234C45.6578 753.44 53.8114 757.101 62.7522 757.101C86.3745 757.101 98.1185 748.077 114.381 735.603C134.784 719.942 162.714 698.49 233.593 678.054C353.76 643.405 341.273 530.983 328.038 411.937Z" fill="url(#paint0_linear_4851_24)"/>
<path d="M799.992 557.312C799.992 364.622 702.501 57.8125 586.956 57.8125C491.903 57.8125 480.921 191.431 480.921 291.943C480.921 331.546 476.377 372.417 471.986 411.937C458.751 530.983 446.252 643.405 566.431 678.054C637.298 698.49 665.234 719.942 685.631 735.59C701.893 748.077 713.637 757.101 737.259 757.101C746.194 757.101 754.347 753.44 761.503 746.234C800.747 706.669 800.043 563.348 799.992 557.312Z" fill="url(#paint1_linear_4851_24)"/>
<defs>
<linearGradient id="paint0_linear_4851_24" x1="12.5" y1="113" x2="265.5" y2="679.5" gradientUnits="userSpaceOnUse">
<stop stop-color="#01BBCA"/>
<stop offset="1" stop-color="#1664A7"/>
</linearGradient>
<linearGradient id="paint1_linear_4851_24" x1="768.5" y1="227.5" x2="631.91" y2="757.101" gradientUnits="userSpaceOnUse">
<stop stop-color="#02BCCB"/>
<stop offset="1" stop-color="#1F3B96"/>
</linearGradient>
</defs>
</svg>
